<?xml version="1.0" standalone="no"?>
<!DOCTYPE svg PUBLIC "-//W3C//DTD SVG 20010904//EN"
 "http://www.w3.org/TR/2001/REC-SVG-20010904/DTD/svg10.dtd">
<svg version="1.0" xmlns="http://www.w3.org/2000/svg"
 width="512.000000pt" height="512.000000pt" viewBox="0 0 512.000000 512.000000"
 preserveAspectRatio="xMidYMid meet">

<g transform="translate(0.000000,512.000000) scale(0.100000,-0.100000)"
fill="#000000" stroke="none">
<path d="M2840 4069 c-105 -9 -529 -41 -1055 -79 -561 -41 -537 -38 -584 -63
-32 -16 -52 -36 -68 -67 l-23 -44 2 -1010 3 -1011 24 -45 c49 -93 477 -643
527 -679 37 -26 38 -26 213 -25 97 1 291 9 431 18 241 15 619 38 1170 71 366
22 390 24 442 47 32 14 55 33 70 57 l23 36 3 1105 c2 799 -1 1112 -9 1132 -6
15 -34 45 -63 66 -110 84 -638 453 -678 474 -38 20 -59 23 -183 24 -77 1 -187
-2 -245 -7z m376 -175 c45 -19 384 -263 391 -282 3 -7 4 -14 2 -16 -2 -2 -238
-18 -524 -35 -286 -17 -666 -41 -845 -52 -446 -28 -516 -28 -561 -6 -37 18
-284 211 -308 241 -12 15 -12 19 2 33 16 16 98 24 837 77 365 27 753 56 800
60 72 6 165 -3 206 -20z m585 -530 l24 -26 0 -936 c0 -754 -3 -943 -13 -968
-22 -53 -56 -62 -267 -74 -104 -6 -343 -19 -530 -30 -187 -11 -421 -24 -520
-30 -99 -6 -292 -17 -428 -26 -271 -17 -300 -14 -337 33 -20 25 -20 38 -20
970 l0 945 29 29 c16 16 40 29 53 29 13 0 93 4 178 10 85 5 272 16 415 25 460
27 795 46 1010 59 116 7 249 14 296 15 80 1 87 -1 110 -25z"/>
<path d="M3265 3049 c-71 -5 -144 -11 -161 -14 -39 -7 -74 -44 -77 -81 -2 -28
-1 -29 73 -39 l75 -10 3 -208 c1 -115 1 -299 0 -410 l-3 -202 -299 458 c-164
251 -301 459 -305 461 -3 2 -107 -2 -231 -11 -258 -17 -276 -22 -300 -91 -19
-54 -9 -62 78 -62 l62 0 0 -589 0 -590 -61 -17 c-63 -18 -94 -46 -87 -81 4
-21 -9 -20 223 -10 262 12 309 26 329 93 6 20 1 23 -71 38 -43 9 -85 20 -93
25 -13 7 -15 69 -18 445 -1 240 1 436 6 436 4 0 16 -15 27 -32 104 -177 556
-876 595 -920 42 -47 58 -58 97 -66 56 -12 123 -2 200 30 l53 22 2 655 3 656
55 12 c62 13 90 40 90 84 l0 29 -67 -1 c-38 -1 -126 -6 -198 -10z"/>
</g>
</svg>
